<?xml version="1.0" encoding="UTF-8" standalone="no"?>
<svg
   viewBox="0 0 18.118257 176.22056"
   version="1.1"
   id="svg12"
   sodipodi:docname="logo.svg"
   inkscape:version="1.3.2 (091e20e, 2023-11-25)"
   xmlns:inkscape="http://www.inkscape.org/namespaces/inkscape"
   xmlns:sodipodi="http://sodipodi.sourceforge.net/DTD/sodipodi-0.dtd"
   xmlns="http://www.w3.org/2000/svg"
   xmlns:svg="http://www.w3.org/2000/svg">
  <defs
     id="defs12" />
  <sodipodi:namedview
     id="namedview12"
     pagecolor="#ffffff"
     bordercolor="#666666"
     borderopacity="1.0"
     inkscape:showpageshadow="2"
     inkscape:pageopacity="0.0"
     inkscape:pagecheckerboard="0"
     inkscape:deskcolor="#d1d1d1"
     inkscape:zoom="0.4566"
     inkscape:cx="329.6"
     inkscape:cy="355.9"
     inkscape:window-width="2560"
     inkscape:window-height="1052"
     inkscape:window-x="2560"
     inkscape:window-y="0"
     inkscape:window-maximized="1"
     inkscape:current-layer="g14" />
  <g
     transform="translate(-147.88089,-91.208769)"
     id="g12">
    <path
       style="fill:none;stroke:#ffffff;stroke-opacity:1"
       d="m 157.729,199.39336 2.61346,-10.16296 0.006,-7.40164 h 5.51037 l 0.008,6.92371 -6.14774,17.22432 z"
       id="path1" />
    <path
       style="fill:#ffffff;"
       d="m 158.66828,206.9249 h -4.57496 l -6.19467,-18.00994 0.007,-7.0862 h 5.49602 l -0.0151,7.30142 c 1.25178,3.99895 2.39326,8.02855 3.51614,12.06484"
       id="path2" />
    <path
       style="fill:#ffffff;"
       d="m 147.89588,151.66619 v 22.28856 l 2.80758,2.80758 H 165.84 v -4.2416 h -12.45608 v -6.3438 -4.2416 -6.02754 h 12.52016 v -4.2416 z"
       id="path3" />
    <path
       style="fill:none;stroke:#ffffff;stroke-opacity:1"
       d="m 155.50041,161.9354 h 8.81497 l 1.31361,1.14531 v 3.0963 h -10.12858 z"
       id="path4" />
    <path
       style="fill:#ffffff;"
       d="m 147.88813,212.05475 v 10.13168 l 2.67219,2.67219 -2.67219,2.67219 v 9.62009 h 17.94412 v -4.24161 h -12.45608 v -6.34379 -4.24161 -6.02754 h 12.52016 v -4.2416 z"
       id="path5" />
    <path
       style="fill:none;stroke:#ffffff;stroke-opacity:1"
       d="m 155.49279,222.32393 h 8.81497 l 1.31361,1.14531 v 3.0963 h -10.12858 z"
       id="path6" />
    <path
       style="fill:#ffffff;"
       d="m 147.90001,121.50369 v 25.09614 h 5.48236 l 0.006,-4.2416 v -18.30896 l -2.5461,-2.54558 z"
       id="path7" />
    <path
       style="fill:none;stroke:#ffffff;stroke-opacity:1"
       d="m 155.50458,142.35831 h 8.64786 l 1.4701,1.287 v 2.9546 h -10.12331 z"
       id="path8" />
    <path
       style="fill:#ffffff;"
       d="m 147.88089,242.20072 v 22.45031 l 2.64532,2.64583 h 2.83704 l 0.006,-4.2416 v -20.85454 z"
       id="path9" />
    <path
       style="fill:none;stroke:#ffffff;stroke-opacity:1"
       d="m 155.48543,263.05544 h 8.64786 l 1.4701,1.287 v 2.9546 h -10.12331 z"
       id="path10" />
    <path
       style="fill:#ffffff;fill-opacity:0;stroke:#ffffff;"
       d="m 155.51902,101.21974 h 3.5935 l 1.0429,-1.14269 v -8.735775 h 5.48804 v 25.096145 h -5.48804 V 105.759 h -4.6364 z"
       id="path11" />
    <path
       style="fill:#ffffff;"
       d="m 151.013,91.341193 -3.09852,3.098002 v 21.998145 h 5.48804 v -10.14926 -5.06842 -9.878467 z"
       id="path12" />
    <g
       id="g14"
       transform="matrix(4.891,0,0,4.891,-427.2,-373.1)"
       style="stroke-width:0.204444">
      <rect
         style="fill:#f43a3c;stroke-width:0.817816;stroke-linecap:round;paint-order:markers stroke fill"
         id="rect12-7"
         width="141.9"
         height="141.9"
         x="-32.06"
         y="95.94"
         inkscape:export-filename="../../../hlevel/_DOCS/Logo/H - Logo - 520x520.png"
         inkscape:export-xdpi="72"
         inkscape:export-ydpi="72" />
      <g
         id="g13"
         transform="matrix(4.979,0,0,4.979,-436.6,-384.1)"
         style="stroke-width:0.0410632">
        <path
           style="fill:#ffffff;fill-opacity:0;stroke:#ffffff;stroke-width:0.4106;stroke-dasharray:none"
           d="m 94.01,108 h 3.62 l 1.1,-1.1 v -8.81 h 5.37 v 25.11 h -5.37 v -10.6 h -4.72 z"
           id="path11-9" />
        <path
           style="fill:#ffffff;stroke-width:0.0410632"
           d="m 89.51,98.09 l -3.1,3.11 v 22 h 5.5 v -10.1 v -5.1 v -9.91 z"
           id="path12-3" />
      </g>
    </g>
  </g>
</svg>
